<svg xmlns="http://www.w3.org/2000/svg" viewBox="0 0 800 500">
  <defs>
    <linearGradient id="g" x1="0" x2="0" y1="0" y2="1">
      <stop offset="0" stop-color="#111827"/>
      <stop offset="1" stop-color="#0C1117"/>
    </linearGradient>
  </defs>
  <rect width="800" height="500" fill="url(#g)"/>
  <g stroke="#D6D3D1" stroke-opacity="0.5" stroke-width="1">
    <path d="M 20 40 L 780 60"/>
    <path d="M 60 20 L 740 480"/>
    <path d="M 30 420 L 770 420"/>
    <path d="M 120 80 L 750 220"/>
    <path d="M 200 40 L 600 480"/>
  </g>
  <g fill="#2563EB" stroke="#1D4ED8" stroke-width="8">
    <path d="M 80 420 C 120 410 160 380 200 340 C 250 290 300 270 340 290 C 380 310 460 320 520 310 C 620 290 680 260 720 240" fill="none"/>
  </g>
  <g>
    <circle cx="80" cy="420" r="12" fill="#10B981" stroke="#064E3B" stroke-width="4"/>
    <circle cx="400" cy="300" r="10" fill="#111827" stroke="#334155" stroke-width="5"/>
    <circle cx="720" cy="240" r="12" fill="#EF4444" stroke="#7F1D1D" stroke-width="4"/>
  </g>
</svg>